<svg width="18" height="17" viewBox="0 0 18 17" fill="none" xmlns="http://www.w3.org/2000/svg">
<path d="M13.9385 11.6849C13.9385 11.9144 13.7524 12.1005 13.5229 12.1005C13.2935 12.1005 13.1074 11.9144 13.1074 11.6849C13.1074 11.6873 13.1074 11.6886 13.1075 11.6886C13.1085 11.6887 13.1219 11.5751 13.2934 11.3179C13.3554 11.2249 13.4315 11.1229 13.5229 11.0118C13.6144 11.1229 13.6905 11.2249 13.7525 11.3179C13.924 11.5751 13.9374 11.6887 13.9384 11.6886C13.9385 11.6886 13.9385 11.6873 13.9385 11.6849Z" fill="#344054" stroke="#344054" stroke-width="2"/>
<path d="M7.80859 1.95471L9.05974 3.20587" stroke="#344054" stroke-width="2" stroke-linecap="round"/>
<path d="M8.80977 2.95569L3.30469 8.4608L7.3084 12.4645L12.8135 6.95939L8.80977 2.95569Z" stroke="#344054" stroke-width="2" stroke-linejoin="round"/>
<path d="M4.67578 7.11035L10.678 9.08373" stroke="#344054" stroke-width="2" stroke-linecap="round"/>
<path d="M1.8457 15.2238H16.001" stroke="#344054" stroke-width="1.41553" stroke-linecap="round"/>
</svg>
